<svg xmlns="http://www.w3.org/2000/svg" version="1.0" width="300.000000pt" height="162.000000pt" viewBox="0 0 300.000000 162.000000" preserveAspectRatio="xMidYMid meet">
<metadata fill="#ffffff">
Created by potrace 1.10, written by Peter Selinger 2001-2011
</metadata>
<g transform="translate(0.000000,162.000000) scale(0.100000,-0.100000)" fill="#ffffff" stroke="none">
<path d="M1470 1487 c-104 -24 -187 -88 -226 -172 -67 -143 21 -277 206 -314 30 -6 70 -9 88 -6 36 5 39 -4 16 -40 l-16 -24 -51 20 c-89 35 -174 23 -241 -35 -20 -17 -35 -22 -45 -17 -9 5 -37 11 -63 14 -37 5 -51 2 -72 -14 -46 -36 -27 -97 53 -169 20 -19 30 -39 34 -73 22 -161 190 -315 376 -347 84 -14 136 -7 172 23 44 37 44 66 -1 127 -22 30 -40 59 -40 66 0 7 -12 26 -26 43 -30 36 -26 46 22 56 72 13 116 63 94 106 -14 26 -84 69 -112 69 -17 0 -27 10 -40 42 -10 23 -17 42 -15 43 1 1 31 15 67 33 36 17 85 50 108 74 54 53 107 147 123 215 35 151 -89 281 -276 289 -44 2 -105 -2 -135 -9z m265 -57 c26 -14 62 -42 79 -63 28 -35 31 -45 31 -110 0 -93 -27 -150 -109 -233 -54 -54 -169 -125 -181 -112 -3 2 19 24 48 47 47 39 107 112 107 132 0 5 -16 -3 -36 -16 -53 -36 -109 -48 -188 -42 -83 7 -166 44 -198 89 -29 42 -36 132 -14 180 25 52 86 106 152 134 52 22 71 24 160 22 83 -3 108 -8 149 -28z m-284 -501 c40 -14 94 -62 116 -103 9 -17 13 -46 11 -72 -3 -43 7 -59 29 -46 11 7 28 52 25 65 -4 14 19 7 25 -8 3 -9 21 -22 39 -30 75 -31 4 -84 -113 -85 -39 0 -43 -2 -43 -25 0 -19 12 -34 45 -57 39 -28 45 -36 40 -59 -5 -21 -2 -28 14 -32 13 -3 21 -13 21 -26 0 -14 6 -21 20 -21 54 0 19 -79 -40 -91 -53 -11 -149 8 -226 46 -130 63 -223 183 -225 289 0 48 -3 53 -41 81 -59 43 -82 77 -74 110 6 22 10 25 29 19 27 -9 47 -9 70 1 16 7 17 4 11 -21 -12 -46 -10 -68 6 -72 10 -2 20 10 28 31 31 86 141 136 233 106z" fill="#ffffff"/>
<path d="M1447 1303 c-4 -3 -7 -30 -7 -60 0 -52 0 -53 30 -53 23 0 30 4 30 20 0 11 5 20 10 20 6 0 10 -9 10 -20 0 -11 4 -20 8 -20 4 0 6 26 4 57 -4 66 -12 85 -12 30 0 -20 -4 -37 -10 -37 -5 0 -10 16 -10 35 0 30 -3 35 -23 35 -13 0 -27 -3 -30 -7z" fill="#ffffff"/>
<path d="M1559 1308 c-1 -2 -2 -29 -3 -60 -2 -57 -2 -58 26 -58 28 0 28 1 28 60 0 57 -1 60 -25 60 -14 0 -25 -1 -26 -2z" fill="#ffffff"/>
<path d="M1636 1294 c-4 -9 -1 -23 5 -30 6 -8 8 -26 4 -44 -6 -26 -4 -30 14 -30 22 0 29 26 9 32 -9 3 -8 12 5 32 15 22 16 30 6 42 -15 19 -35 18 -43 -2z" fill="#ffffff"/>
<path d="M1310 815 c0 -22 4 -26 23 -23 14 2 22 10 22 23 0 13 -8 21 -22 23 -19 3 -23 -1 -23 -23z" fill="#ffffff"/>
<path d="M1443 774 c-3 -8 2 -23 11 -32 15 -15 17 -15 32 0 21 21 11 48 -16 48 -11 0 -23 -7 -27 -16z" fill="#ffffff"/>
<path d="M1360 740 c0 -26 25 -36 46 -19 14 12 14 14 -2 26 -26 19 -44 16 -44 -7z" fill="#ffffff"/>
<path d="M1500 473 c62 -57 82 -71 108 -72 10 -1 10 3 -2 14 -8 8 -19 15 -25 15 -5 0 -22 16 -38 35 -16 19 -46 41 -67 50 -38 16 -37 15 24 -42z" fill="#ffffff"/>
<path d="M553 1392 c-35 -2 -63 -6 -63 -11 0 -4 -6 -8 -13 -8 -31 0 -109 -48 -145 -88 -21 -23 -50 -67 -65 -96 -26 -52 -57 -175 -57 -224 0 -30 20 -76 30 -70 4 3 13 -9 20 -26 12 -27 11 -32 -14 -58 -14 -15 -26 -34 -26 -43 0 -56 116 -177 173 -178 9 0 17 5 17 10 0 6 -4 10 -9 10 -16 0 -121 101 -137 132 -18 35 -14 43 37 68 21 11 39 23 39 25 0 3 -23 30 -50 60 -37 41 -49 61 -46 78 3 12 10 45 15 73 28 141 97 242 193 285 70 30 220 33 357 5 105 -21 131 -39 131 -88 0 -118 -49 -246 -117 -309 -70 -64 -121 -82 -244 -87 -96 -4 -106 -6 -115 -26 -5 -12 -36 -34 -71 -51 -41 -19 -63 -35 -63 -46 0 -21 85 -117 95 -107 4 3 -5 27 -20 52 l-26 45 42 27 c23 14 52 35 63 45 15 14 35 19 77 19 175 0 299 74 367 220 30 65 36 88 40 170 4 94 4 95 -24 122 -33 30 -127 56 -239 64 -38 3 -74 6 -80 7 -5 1 -38 1 -72 -1z" fill="#ffffff"/>
<path d="M2185 1304 c-16 -8 -37 -22 -46 -30 -8 -8 -23 -14 -33 -14 -22 0 -69 -24 -86 -45 -8 -10 -17 -40 -21 -69 -4 -28 -15 -78 -24 -111 -17 -59 -17 -60 6 -104 16 -31 35 -49 64 -62 22 -10 58 -34 79 -54 32 -28 36 -35 19 -35 -37 0 -109 -30 -148 -63 -22 -17 -47 -30 -57 -29 -27 5 -106 -36 -113 -57 -10 -32 11 -66 74 -120 57 -50 61 -56 61 -96 0 -24 -9 -64 -20 -90 -11 -26 -19 -60 -18 -76 2 -31 33 -59 65 -59 10 0 28 -7 40 -15 13 -9 41 -14 74 -13 30 1 68 -2 86 -6 27 -7 35 -4 55 17 13 14 32 52 42 84 10 32 32 85 50 118 27 52 39 64 85 87 56 26 81 50 81 76 0 25 -75 92 -104 92 -20 0 -30 9 -45 38 -11 20 -36 50 -56 66 -20 15 -33 31 -28 35 4 4 31 13 60 20 47 11 57 11 113 -11 l61 -23 -6 -47 c-7 -62 20 -81 76 -53 39 21 66 59 84 120 14 49 19 55 65 76 57 26 86 71 75 119 -4 17 -2 45 5 64 22 68 -36 152 -123 178 -23 6 -57 25 -76 41 -18 15 -45 33 -60 39 -35 14 -138 13 -155 -2 -11 -8 -22 -6 -48 10 -40 24 -111 26 -153 4z m119 -24 c15 -5 31 -21 38 -35 l11 -25 22 20 c26 25 80 35 130 26 43 -8 105 -60 105 -89 0 -16 3 -18 12 -9 42 42 148 -31 148 -102 0 -25 -6 -40 -19 -48 -19 -12 -19 -12 -1 -35 15 -20 17 -29 8 -54 -12 -34 -44 -51 -70 -38 -14 8 -19 4 -24 -16 -3 -14 -14 -31 -24 -38 -9 -7 -19 -31 -23 -55 -6 -47 -33 -84 -79 -108 -38 -20 -41 -18 -19 14 20 27 24 46 22 90 -1 18 -7 22 -31 22 -42 0 -94 23 -114 51 -9 13 -16 18 -16 11 0 -7 -21 -22 -46 -34 -85 -37 -203 -9 -212 51 -3 17 -10 21 -38 21 -47 0 -84 37 -84 84 0 48 19 85 47 92 l24 6 -20 20 c-27 24 -27 58 1 93 19 24 26 27 65 22 37 -4 43 -2 43 14 0 24 55 59 92 59 15 0 38 -4 52 -10z m-58 -559 c22 -10 50 -31 62 -46 26 -33 45 -99 37 -125 -4 -11 -3 -20 1 -20 17 0 44 35 44 57 0 12 5 23 10 23 6 0 10 -6 10 -14 0 -7 13 -19 29 -26 16 -6 28 -17 27 -23 -7 -31 -20 -47 -40 -47 -11 0 -30 -7 -40 -15 -11 -8 -28 -15 -37 -15 -10 0 -21 -10 -25 -22 -3 -13 -22 -57 -41 -98 -19 -41 -38 -92 -41 -114 -8 -46 -33 -67 -59 -48 -50 35 -62 36 -89 11 l-26 -24 -22 28 c-19 23 -27 26 -54 21 -45 -9 -51 14 -21 84 33 79 30 202 -5 202 -8 0 -28 14 -44 30 -17 17 -35 30 -41 30 -15 0 -32 36 -25 54 3 9 16 16 29 16 12 0 29 7 36 17 12 14 15 11 19 -27 6 -51 30 -68 30 -22 0 97 164 164 276 113z" fill="#ffffff"/>
<path d="M2208 1094 c-5 -4 -8 -31 -8 -61 l0 -53 45 0 c40 0 45 3 45 23 0 12 3 31 5 42 3 11 1 26 -3 33 -10 15 -74 27 -84 16z m76 -31 c4 -9 0 -23 -9 -32 -13 -14 -15 -12 -15 17 0 34 14 43 24 15z" fill="#ffffff"/>
<path d="M2326 1084 c-26 -25 -18 -85 13 -100 52 -26 96 27 69 83 -16 34 -57 42 -82 17z m72 -46 c-2 -18 -7 -33 -13 -33 -5 0 -11 15 -13 33 -3 24 1 32 13 32 12 0 16 -8 13 -32z" fill="#ffffff"/>
<path d="M2446 1087 c-27 -19 -18 -88 12 -103 31 -15 57 -8 70 21 28 60 -31 119 -82 82z m72 -49 c-2 -18 -7 -33 -13 -33 -5 0 -11 15 -13 33 -3 24 1 32 13 32 12 0 16 -8 13 -32z" fill="#ffffff"/>
<path d="M2554 1085 c-4 -9 -1 -27 6 -41 13 -23 13 -24 27 -4 8 11 13 28 11 38 -4 22 -36 28 -44 7z" fill="#ffffff"/>
<path d="M2560 996 c0 -8 4 -17 9 -20 11 -7 33 18 24 27 -12 12 -33 7 -33 -7z" fill="#ffffff"/>
<path d="M2070 625 c-17 -21 -9 -27 31 -23 31 3 32 4 15 21 -21 21 -30 21 -46 2z" fill="#ffffff"/>
<path d="M2210 605 c-17 -21 -9 -27 31 -23 31 3 32 4 15 21 -21 21 -30 21 -46 2z" fill="#ffffff"/>
<path d="M2130 561 c0 -25 30 -36 49 -17 17 18 15 21 -21 30 -23 5 -28 3 -28 -13z" fill="#ffffff"/>
<path d="M420 1099 l0 -60 42 3 42 3 3 45 c4 51 -12 70 -59 70 -28 0 -28 -1 -28 -61z" fill="#ffffff"/>
<path d="M536 1138 c-33 -47 -13 -98 39 -98 38 0 55 20 55 64 0 53 -65 76 -94 34z m82 -34 c3 -25 -13 -48 -27 -40 -12 8 -15 49 -4 60 11 11 28 1 31 -20z" fill="#ffffff"/>
<path d="M656 1145 c-19 -20 -21 -64 -3 -89 9 -12 23 -17 47 -14 28 2 37 9 44 31 21 58 -46 113 -88 72z m74 -51 c0 -45 -24 -42 -28 4 -2 24 1 32 12 32 12 0 16 -10 16 -36z" fill="#ffffff"/>
<path d="M771 1147 c-8 -10 -7 -21 2 -40 6 -15 14 -27 17 -27 3 0 11 12 17 27 12 26 3 53 -17 53 -4 0 -13 -6 -19 -13z" fill="#ffffff"/>
<path d="M770 1055 c0 -8 9 -15 20 -15 11 0 20 7 20 15 0 8 -9 15 -20 15 -11 0 -20 -7 -20 -15z" fill="#ffffff"/>
<path d="M1831 913 c0 -7 -8 -13 -16 -13 -8 0 -15 -7 -15 -15 0 -7 -8 -19 -17 -24 -15 -9 -12 -10 15 -11 35 0 46 14 39 52 -2 13 -5 17 -6 11z" fill="#ffffff"/>
<path d="M1860 892 c0 -25 23 -45 47 -40 16 2 14 7 -14 31 -30 26 -33 27 -33 9z" fill="#ffffff"/>
<path d="M1792 818 c3 -7 11 -13 19 -13 8 0 14 -8 14 -17 0 -9 4 -20 8 -25 5 -4 7 8 5 27 -2 28 -8 36 -27 38 -16 3 -22 -1 -19 -10z" fill="#ffffff"/>
<path d="M1867 823 c-4 -3 -7 -18 -7 -32 l1 -26 12 23 c7 12 16 20 19 17 3 -3 11 1 18 10 11 13 9 15 -12 15 -14 0 -28 -3 -31 -7z" fill="#ffffff"/>
<path d="M620 769 c-87 -27 -155 -116 -167 -223 -5 -37 -14 -59 -37 -84 -38 -42 -55 -72 -49 -88 7 -18 -18 -29 -28 -13 -6 10 -9 6 -9 -13 0 -15 7 -34 16 -42 20 -20 84 -21 131 -1 44 19 58 19 76 1 7 -8 45 -29 83 -47 38 -18 83 -44 101 -57 18 -13 49 -26 70 -29 33 -4 42 -1 66 26 15 17 36 31 47 31 11 0 30 12 43 28 12 15 38 43 58 63 55 54 64 75 44 105 -9 14 -29 27 -45 31 -35 7 -37 12 -10 46 44 56 9 123 -70 132 -25 3 -46 9 -48 13 -15 41 -54 89 -86 106 -46 23 -134 30 -186 15z m172 -45 c35 -18 57 -51 65 -96 l6 -38 53 6 c63 8 84 -4 84 -47 0 -22 -5 -29 -20 -29 -11 0 -20 -7 -20 -15 0 -17 -16 -20 -25 -4 -8 12 -56 32 -62 25 -3 -2 3 -18 11 -35 19 -37 59 -59 121 -68 28 -3 45 -11 45 -19 0 -19 -39 -52 -70 -59 -22 -5 -26 -10 -22 -35 5 -36 -22 -52 -81 -48 -44 3 -43 4 -30 -43 9 -32 -29 -31 -72 1 -22 16 -69 44 -105 61 -84 40 -118 65 -140 101 -18 29 -18 30 -29 10 -6 -11 -11 -31 -11 -43 0 -18 -3 -20 -12 -11 -16 16 -28 15 -28 -3 0 -8 -4 -15 -10 -15 -13 0 -50 41 -50 56 0 17 55 71 80 79 17 5 20 15 20 68 0 77 25 133 76 175 61 51 156 62 226 26z" fill="#ffffff"/>
<path d="M722 618 c-7 -7 -12 -21 -11 -32 0 -20 1 -20 9 2 10 24 45 30 53 10 2 -7 8 -10 12 -6 11 10 -14 38 -34 38 -9 0 -22 -5 -29 -12z" fill="#ffffff"/>
<path d="M566 574 c-18 -17 -21 -44 -6 -44 6 0 10 7 10 15 0 21 27 30 45 15 22 -18 29 -6 10 14 -21 20 -39 20 -59 0z" fill="#ffffff"/>
<path d="M666 551 c-9 -14 4 -41 20 -41 8 0 14 10 14 25 0 25 -23 35 -34 16z" fill="#ffffff"/>
<path d="M840 376 c0 -5 65 -46 74 -46 18 0 2 18 -29 33 -37 18 -45 20 -45 13z" fill="#ffffff"/>
<path d="M2627 476 l-28 -28 28 7 c35 8 35 9 31 32 -3 16 -6 14 -31 -11z" fill="#ffffff"/>
<path d="M2680 489 c0 -10 9 -23 19 -29 33 -17 44 -11 20 11 -13 11 -18 18 -11 14 6 -3 12 -2 12 3 0 5 -9 12 -20 15 -15 4 -20 0 -20 -14z" fill="#ffffff"/>
<path d="M2611 427 c8 -8 17 -13 22 -10 4 2 12 -6 17 -19 9 -21 10 -21 7 7 -2 25 -7 31 -31 33 -24 3 -26 2 -15 -11z" fill="#ffffff"/>
<path d="M2687 433 c-4 -3 -6 -20 -6 -37 1 -25 3 -26 6 -8 3 14 10 21 17 19 7 -3 18 4 24 14 11 17 9 19 -11 19 -13 0 -27 -3 -30 -7z" fill="#ffffff"/>
<path d="M292 340 c-6 -14 -11 -19 -11 -12 -1 6 -5 12 -11 12 -5 0 -7 -6 -4 -13 3 -8 -5 -18 -18 -25 -22 -10 -22 -11 8 -11 37 -1 57 19 52 51 l-5 23 -11 -25z" fill="#ffffff"/>
<path d="M1196 337 c-7 -22 -11 -25 -22 -16 -11 9 -14 8 -14 -4 0 -8 -6 -18 -12 -20 -7 -3 -1 -6 13 -6 33 -1 52 20 47 51 -4 22 -5 22 -12 -5z" fill="#ffffff"/>
<path d="M1220 337 c0 -26 26 -49 51 -45 l24 4 -27 12 c-16 6 -28 18 -28 27 0 8 -4 15 -10 15 -5 0 -10 -6 -10 -13z" fill="#ffffff"/>
<path d="M253 246 c13 -14 24 -20 28 -14 3 5 10 -1 14 -14 l8 -23 4 23 c6 31 -13 52 -47 52 l-28 0 21 -24z" fill="#ffffff"/>
<path d="M346 254 c-9 -8 -16 -27 -16 -42 1 -25 2 -25 14 -9 7 9 18 17 25 17 6 0 11 7 11 15 0 7 8 19 18 24 15 9 13 10 -10 11 -15 0 -34 -7 -42 -16z" fill="#ffffff"/>
<path d="M1156 256 c3 -8 12 -12 19 -10 8 3 17 -6 23 -23 l10 -28 1 26 c1 29 -15 49 -41 49 -11 0 -15 -5 -12 -14z" fill="#ffffff"/>
<path d="M1228 245 c-6 -14 -9 -27 -6 -30 9 -9 39 7 35 19 -2 6 5 16 17 23 20 12 20 12 -7 13 -20 0 -31 -7 -39 -25z" fill="#ffffff"/>
</g>
</svg>