<svg xmlns="http://www.w3.org/2000/svg" version="1.0" width="300.000000pt" height="202.000000pt" viewBox="0 0 300.000000 202.000000" preserveAspectRatio="xMidYMid meet">
<metadata fill="#ffffff">
Created by potrace 1.10, written by Peter Selinger 2001-2011
</metadata>
<g transform="translate(0.000000,202.000000) scale(0.100000,-0.100000)" fill="#ffffff" stroke="none">
<path d="M1404 1857 c-4 -13 -10 -14 -24 -7 -19 10 -50 4 -50 -10 0 -5 14 -14 30 -22 17 -7 28 -18 26 -24 -2 -6 6 -16 20 -23 19 -8 24 -8 24 3 0 11 10 13 43 9 l42 -6 -19 22 c-11 11 -25 21 -33 21 -10 0 -12 6 -8 22 6 16 4 20 -8 15 -8 -3 -19 -1 -25 5 -8 8 -13 7 -18 -5z" fill="#ffffff"/>
<path d="M2101 1578 c-31 -17 -36 -32 -16 -51 8 -9 15 -27 15 -41 0 -43 54 -67 117 -50 12 3 24 12 27 19 4 10 -3 11 -30 3 -41 -11 -94 -2 -94 16 0 7 9 21 20 31 28 25 25 30 -15 31 -37 1 -53 9 -41 22 10 9 112 9 122 -1 4 -4 -2 -21 -14 -37 -12 -16 -22 -30 -22 -32 0 -2 18 -3 41 -4 30 0 37 3 27 10 -7 6 -12 20 -10 31 1 11 -3 28 -10 38 -17 23 -85 32 -117 15z" fill="#ffffff"/>
<path d="M1285 1550 c-87 -19 -202 -63 -250 -94 -73 -48 -140 -122 -180 -197 -63 -120 -65 -138 -65 -590 l0 -406 26 -27 27 -26 281 0 c230 0 301 -4 391 -19 61 -11 155 -22 210 -26 232 -16 649 55 722 123 24 22 24 24 8 42 -10 11 -43 27 -73 35 -132 39 -263 130 -307 214 -15 31 -15 35 0 68 21 44 16 92 -17 165 -30 65 -116 170 -167 204 -38 24 -38 26 -44 102 -13 188 -131 344 -312 412 -67 24 -186 34 -250 20z m280 -60 c130 -62 228 -189 255 -329 23 -125 3 -137 -35 -20 -32 100 -58 142 -124 202 -129 115 -336 120 -484 11 -58 -42 -121 -136 -137 -205 -22 -89 -8 -165 84 -464 125 -405 120 -393 187 -434 l34 -21 -185 0 c-152 0 -190 3 -208 16 l-22 15 0 449 c0 420 1 452 20 513 39 127 149 239 280 285 55 19 80 22 165 19 89 -3 108 -7 170 -37z m-534 -85 c-58 -61 -105 -153 -121 -234 -6 -31 -10 -230 -10 -475 0 -365 2 -425 16 -444 15 -22 14 -22 -21 -22 -25 0 -43 8 -60 25 l-25 24 0 379 c0 230 4 402 11 438 14 77 66 187 114 243 36 41 130 121 142 121 3 0 -17 -25 -46 -55z m485 -10 c117 -35 196 -117 240 -248 43 -131 76 -186 148 -249 78 -70 113 -135 122 -228 8 -80 34 -128 106 -197 62 -58 131 -96 233 -129 38 -12 71 -26 73 -32 9 -27 -249 -92 -452 -113 -206 -22 -547 11 -647 62 -71 36 -70 33 -220 529 -52 171 -62 217 -62 277 1 84 29 157 88 221 91 102 243 145 371 107z m420 -457 c28 -29 61 -68 73 -86 34 -50 64 -141 55 -171 -6 -24 -8 -22 -15 17 -16 85 -54 148 -138 230 -45 43 -81 84 -81 91 0 17 44 -16 106 -81z" fill="#ffffff"/>
<path d="M963 755 c0 -148 3 -208 7 -170 10 76 10 251 0 335 -4 42 -7 -15 -7 -165z" fill="#ffffff"/>
<path d="M966 474 c-9 -22 -8 -24 8 -18 18 7 29 -28 21 -66 -3 -16 -13 -30 -20 -32 -11 -2 -12 -7 -5 -18 18 -26 40 17 40 75 0 62 -28 100 -44 59z" fill="#ffffff"/>
<path d="M1020 289 c0 -17 4 -28 10 -24 6 3 10 17 10 31 0 13 -4 24 -10 24 -5 0 -10 -14 -10 -31z" fill="#ffffff"/>
<path d="M1643 1206 c-55 -23 -59 -36 -13 -36 26 0 70 32 70 50 0 6 -1 9 -2 9 -2 -1 -27 -11 -55 -23z" fill="#ffffff"/>
<path d="M1450 1155 c-14 -8 -48 -19 -77 -26 -56 -13 -62 -29 -10 -29 43 1 117 35 117 55 0 18 1 18 -30 0z" fill="#ffffff"/>
<path d="M1603 1035 c-31 -13 -60 -51 -49 -63 4 -3 24 4 45 16 21 12 45 22 52 22 8 0 21 5 29 10 13 9 13 11 0 20 -20 13 -39 12 -77 -5z" fill="#ffffff"/>
<path d="M1280 870 c0 -5 19 -18 43 -28 61 -27 117 -89 188 -205 101 -165 131 -225 124 -246 -19 -60 -218 -4 -320 90 -54 50 -87 110 -105 192 -7 31 -16 57 -20 57 -16 0 -17 -15 -3 -68 34 -128 100 -210 218 -267 157 -76 272 -60 246 33 -11 37 -145 263 -201 338 -55 73 -170 144 -170 104z" fill="#ffffff"/>
<path d="M1940 560 c-25 -11 -58 -19 -75 -20 l-30 -1 25 -10 c15 -6 51 -7 90 -2 36 4 55 9 43 11 -26 4 -29 12 -11 30 15 15 14 14 -42 -8z" fill="#ffffff"/>
<path d="M1314 372 c17 -33 40 -54 83 -76 54 -27 51 -18 -4 14 -30 17 -59 43 -68 60 -9 17 -18 30 -21 30 -2 0 2 -12 10 -28z" fill="#ffffff"/>
<path d="M1996 1357 c-15 -11 -17 -17 -7 -35 6 -12 9 -32 6 -45 -4 -15 0 -29 14 -41 22 -20 95 -33 105 -18 3 6 -13 13 -38 16 -24 4 -52 13 -62 20 -17 13 -16 15 15 34 l33 20 -36 12 c-50 16 -47 34 5 26 23 -4 51 -12 62 -18 20 -11 20 -11 -8 -34 -32 -26 -33 -25 12 -41 29 -10 32 -9 24 6 -5 9 -7 28 -4 41 3 17 -2 31 -14 42 -26 23 -85 31 -107 15z" fill="#ffffff"/>
<path d="M2399 1327 c-8 -7 -19 -12 -25 -10 -6 2 -17 -3 -24 -12 -10 -12 -10 -15 0 -15 9 0 7 -7 -5 -20 -21 -24 -15 -36 12 -21 10 5 25 12 34 14 9 3 19 20 23 38 7 38 3 45 -15 26z" fill="#ffffff"/>
<path d="M1894 1155 c-17 -13 -16 -14 20 -8 36 6 39 5 34 -15 -5 -18 -2 -22 19 -22 l24 0 -21 30 c-24 33 -46 38 -76 15z" fill="#ffffff"/>
<path d="M1897 1122 c-16 -7 -16 -9 -2 -30 19 -26 66 -30 85 -7 11 14 10 14 -14 5 -46 -17 -59 -13 -52 15 4 14 5 25 4 24 -2 0 -11 -4 -21 -7z" fill="#ffffff"/>
<path d="M430 922 c0 -4 11 -20 26 -35 14 -15 22 -32 19 -37 -4 -6 4 -19 17 -29 13 -11 26 -15 29 -10 4 6 22 4 47 -4 39 -14 42 -14 42 4 0 10 -11 26 -26 35 -17 12 -22 20 -15 27 16 16 13 27 -4 27 -9 0 -18 7 -22 16 -6 15 -7 15 -19 -1 -13 -17 -15 -17 -32 -2 -19 17 -62 23 -62 9z" fill="#ffffff"/>
</g>
</svg>