<?xml version="1.0" standalone="no"?>
<!DOCTYPE svg PUBLIC "-//W3C//DTD SVG 20010904//EN"
 "http://www.w3.org/TR/2001/REC-SVG-20010904/DTD/svg10.dtd">
<svg version="1.0" xmlns="http://www.w3.org/2000/svg"
 width="300.000000pt" height="230.000000pt" viewBox="0 0 300.000000 230.000000"
 preserveAspectRatio="xMidYMid meet">
<metadata>
Created by potrace 1.10, written by Peter Selinger 2001-2011
</metadata>
<g transform="translate(0.000000,230.000000) scale(0.100000,-0.100000)"
fill="#E5E5E5" stroke="none">
<path d="M2082 1856 c-92 -36 -107 -47 -99 -70 9 -22 38 -20 92 6 24 12 47 19
50 17 2 -3 -16 -47 -41 -98 -68 -139 -56 -150 101 -88 89 35 111 48 113 65 5
36 -25 37 -99 4 -38 -17 -69 -26 -69 -21 0 5 18 46 41 90 43 86 47 123 14 125
-11 1 -57 -13 -103 -30z"/>
<path d="M1850 1854 c-30 -12 -63 -25 -72 -27 -22 -6 -24 -45 -2 -54 9 -3 31
2 50 11 48 23 59 20 40 -9 -9 -13 -25 -48 -37 -76 -18 -46 -18 -54 -5 -67 13
-13 25 -11 108 21 80 30 93 38 93 58 0 32 -24 34 -79 8 -26 -12 -49 -20 -51
-17 -2 2 12 36 32 74 55 106 35 126 -77 78z"/>
<path d="M1720 1685 c-14 -8 -33 -14 -42 -15 -21 0 -39 -32 -29 -49 6 -9 19
-11 41 -6 l32 7 -23 -39 c-25 -44 -21 -79 9 -70 89 30 127 48 130 63 5 23 -17
34 -45 21 -31 -14 -39 -4 -19 25 9 12 16 35 16 50 0 22 -4 28 -22 28 -13 -1
-34 -7 -48 -15z"/>
<path d="M1055 1523 c-101 -20 -163 -80 -185 -177 -12 -55 -1 -117 29 -157
l21 -28 -29 -47 c-17 -25 -38 -77 -48 -115 -13 -52 -22 -69 -38 -73 -40 -10
-102 -66 -129 -116 -37 -69 -41 -155 -8 -199 12 -17 22 -32 22 -34 0 -3 -28
-2 -63 0 -67 6 -94 -8 -81 -41 5 -14 39 -16 311 -16 225 0 310 -3 326 -12 33
-19 393 -18 427 1 21 12 92 14 418 13 345 -2 393 -1 398 13 12 29 -16 47 -70
45 -70 -3 -72 -3 -50 21 14 16 19 36 19 83 0 71 -31 135 -89 183 -25 21 -35
39 -41 73 -11 68 -58 183 -98 238 -34 47 -35 53 -30 111 9 100 -41 193 -124
227 -67 29 -167 14 -231 -33 -17 -13 -36 -22 -41 -18 -6 3 -45 10 -89 15 -87
11 -192 1 -274 -26 l-47 -15 -35 34 c-19 20 -47 38 -63 41 -43 10 -86 13 -108
9z m865 -65 c80 -41 117 -127 83 -196 -19 -38 -65 -63 -47 -26 16 37 9 92 -16
119 -49 52 -123 51 -168 -3 l-22 -27 -20 25 c-11 14 -20 30 -20 35 -1 37 85
94 140 95 14 0 46 -10 70 -22z m-748 -16 c36 -21 45 -54 23 -88 l-16 -25 -24
25 c-19 20 -34 26 -68 26 -56 0 -92 -27 -108 -80 -10 -34 -9 -43 9 -74 20 -34
20 -36 3 -36 -44 0 -79 84 -61 149 29 109 147 160 242 103z m433 -20 c45 -6
50 -10 51 -32 0 -14 4 -35 8 -48 10 -29 99 -96 190 -141 64 -33 79 -36 155
-28 22 2 30 -9 73 -93 26 -52 50 -110 54 -128 6 -32 5 -33 -23 -25 -96 27
-217 -10 -286 -87 -63 -70 -88 -179 -52 -226 23 -30 18 -34 -34 -34 l-50 0 11
31 c23 66 -31 196 -104 252 -99 76 -226 93 -329 45 -110 -50 -183 -153 -182
-255 l0 -51 -46 16 c-61 23 -136 96 -150 147 -24 88 -6 208 47 313 25 48 32
55 62 59 19 2 52 15 73 29 63 42 187 169 187 192 0 46 199 83 345 64z m305
-92 c21 -21 27 -74 10 -85 -15 -10 -114 49 -118 70 -8 38 74 49 108 15z m-780
-5 c11 -13 9 -20 -11 -41 -13 -14 -37 -35 -53 -47 -28 -20 -29 -20 -43 -1 -16
22 -10 60 14 87 20 21 76 22 93 2z m339 -461 c56 -16 131 -76 156 -124 37 -71
27 -146 -23 -171 -35 -17 -323 -25 -378 -10 -67 18 -79 32 -79 93 1 95 58 168
163 209 58 23 94 23 161 3z m650 0 c96 -28 163 -123 147 -209 -6 -31 -14 -40
-49 -56 -23 -10 -56 -19 -74 -19 -32 0 -32 0 -35 58 -3 53 -5 57 -28 57 -24 0
-25 -3 -25 -59 l0 -58 -37 -3 -37 -2 -3 61 c-3 58 -4 61 -28 61 -23 0 -25 -4
-28 -57 -2 -32 -5 -58 -8 -58 -2 0 -20 6 -39 14 -112 47 -48 226 97 271 57 18
84 18 147 -1z m-1290 -66 c7 -40 16 -104 18 -141 l5 -68 -29 6 c-55 13 -55 12
-48 57 6 49 -4 72 -31 66 -14 -2 -20 -13 -22 -46 -2 -23 -7 -40 -13 -37 -14 9
-11 82 6 123 14 33 81 112 95 112 3 0 12 -33 19 -72z m112 -189 c16 -11 29
-18 29 -15 0 3 19 -1 43 -8 26 -8 52 -10 65 -5 24 9 55 2 47 -11 -7 -11 -165
-12 -165 -1 0 6 -12 11 -27 13 -20 2 -29 9 -31 26 -4 27 2 28 39 1z m-191 -16
c28 -24 25 -33 -10 -33 -25 0 -30 4 -30 25 0 29 12 32 40 8z"/>
<path d="M1140 976 c-100 -25 -126 -35 -128 -50 -7 -36 13 -37 143 -7 124 29
148 41 138 67 -8 22 -26 21 -153 -10z"/>
<path d="M1500 984 c-11 -12 -11 -18 1 -29 17 -16 272 -67 295 -58 8 3 14 15
12 27 -3 19 -18 24 -138 48 -162 32 -154 32 -170 12z"/>
<path d="M1275 803 c-60 -15 -73 -76 -26 -124 44 -44 111 -38 153 15 19 22 23
63 10 84 -16 24 -87 37 -137 25z m74 -39 c37 -8 42 -35 9 -58 -29 -21 -57 -20
-80 1 -45 41 -7 72 71 57z"/>
<path d="M371 567 c-6 -8 -9 -22 -5 -31 5 -12 20 -16 71 -16 64 0 64 0 61 28
-3 25 -6 27 -59 30 -39 2 -59 -1 -68 -11z"/>
<path d="M2471 567 c-24 -30 -2 -47 61 -47 59 0 59 0 56 28 -3 25 -7 27 -54
30 -35 2 -55 -2 -63 -11z"/>
<path d="M2634 565 c-12 -31 4 -45 50 -45 47 0 67 20 45 46 -16 19 -88 18 -95
-1z"/>
</g>
</svg>
